	General
Complete name                            : Parker.2013.BRRip.Xvid.AC3.ReLeNTLesS.avi
Format                                   : AVI
Format/Info                              : Audio Video Interleave
File size                                : 1.36 GiB
Duration                                 : 1h 58mn
Overall bit rate                         : 1 635 Kbps

Video
ID                                       : 0
Format                                   : MPEG-4 Visual
Format profile                           : Advanced Simple@L5
Format settings, BVOP                    : 2
Format settings, QPel                    : No
Format settings, GMC                     : No warppoints
Format settings, Matrix                  : Default (H.263)
Codec ID                                 : XVID
Codec ID/Hint                            : XviD
Duration                                 : 1h 58mn
Bit rate                                 : 1 243 Kbps
Width                                    : 720 pixels
Height                                   : 304 pixels
Display aspect ratio                     : 2.35:1
Frame rate                               : 23.976 fps
Color space                              : YUV
Chroma subsampling                       : 4:2:0
Bit depth                                : 8 bits
Scan type                                : Progressive
Compression mode                         : Lossy
Bits/(Pixel*Frame)                       : 0.237
Stream size                              : 1.03 GiB (76%)
Writing library                          : XviD 1.2.1 (UTC 2008-12-04)

Audio
ID                                       : 1
Format                                   : AC-3
Format/Info                              : Audio Coding 3
Mode extension                           : CM (complete main)
Format settings, Endianness              : Big
Codec ID                                 : 2000
Duration                                 : 1h 58mn
Bit rate mode                            : Constant
Bit rate                                 : 384 Kbps
Channel(s)                               : 6 channels
Channel positions                        : Front: L C R, Side: L R, LFE
Sampling rate                            : 48.0 KHz
Bit depth                                : 16 bits
Compression mode                         : Lossy
Stream size                              : 326 MiB (23%)
Alignment                                : Aligned on interleaves
Interleave, duration                     : 64 ms (1.53 video frames)
Interleave, preload duration             : 192 ms
Title                                    : parker.2013.ReLeNTLesS.audio.English
Sample Included                    :  Yes

PL0T
A thief with a unique code of professional ethics is double-crossed by his crew and left for dead. Assuming a new disguise and forming an unlikely alliance with a woman on the inside, he looks to hijack the score of the crew's latest heist.
CAST
Director:  Taylor Hackford
Writers:  John J. McLaughlin (screenplay), Donald E. Westlake (novel)
Stars:  Jason Statham, Jennifer Lopez, Michael Chiklis

SCREENS: 
http://i.imgur.com/ON8zpFq.png 
http://i.imgur.com/SCbLO2Y.png 
http://i.imgur.com/a00kMP7.png 
http://i.imgur.com/ol4Bcdh.png 
http://i.imgur.com/MhSZ6f0.png